<?xml version="1.0" encoding="UTF-8"?>
<svg width="94px" height="18px" viewBox="0 0 94 18" version="1.1" xmlns="http://www.w3.org/2000/svg" xmlns:xlink="http://www.w3.org/1999/xlink">
    <!-- Generator: Sketch 47 (45396) - http://www.bohemiancoding.com/sketch -->
    <title>venmo_logo_blue (1)</title>
    <desc>Created with Sketch.</desc>
    <defs></defs>
    <g id="flows" stroke="none" stroke-width="1" fill="none" fill-rule="evenodd">
        <g id="Step-payments" transform="translate(-113.000000, -330.000000)" fill-rule="nonzero" fill="#FFFFFF">
            <g id="payment-proccess" transform="translate(14.000000, 131.000000)">
                <g id="buttons" transform="translate(20.000000, 80.000000)">
                    <g id="Venmo-btn" transform="translate(0.000000, 106.000000)">
                        <g id="venmo_logo_blue-(1)" transform="translate(79.000000, 13.000000)">
                            <path d="M15.1001055,0 C15.7203655,1.02056795 16,2.07175453 16,3.39961925 C16,7.63482554 12.3709616,13.1366593 9.42556283,17 L2.69809105,17 L0,0.927284265 L5.89063837,0.370120477 L7.31715668,11.8068908 C8.65003882,9.64359771 10.2948823,6.24397846 10.2948823,3.92616441 C10.2948823,2.65747455 10.0767164,1.79333128 9.73577244,1.0818052 L15.1001055,0 Z" id="Shape"></path>
                            <path d="M23.1434121,7.30944249 C24.2735423,7.30944249 27.1187077,6.79478845 27.1187077,5.18504848 C27.1187077,4.4120758 26.569664,4.02649846 25.9226657,4.02649846 C24.7907093,4.02649846 23.3052862,5.37775452 23.1434121,7.30944249 Z M23.0139129,10.4975209 C23.0139129,12.4630895 24.1118342,13.2342442 25.5673728,13.2342442 C27.1524107,13.2342442 28.6700425,12.8486668 30.642582,11.8507602 L29.8996215,16.8730167 C28.5098287,17.5489753 26.3438704,18 24.2414995,18 C18.90862,18 17,14.7805201 17,10.7556743 C17,5.53905906 20.104662,0 26.5054124,0 C30.0294528,0 32,1.96540326 32,4.70212649 C32.000332,9.11403702 26.3119936,10.4656236 23.0139129,10.4975209 Z" id="Shape"></path>
                            <path d="M50,3.72369583 C50,4.34401989 49.9033849,5.24377638 49.8072603,5.83177862 L47.9926628,16.9998408 L42.1043754,16.9998408 L43.7595827,6.76226471 C43.7909703,6.48458372 43.8874219,5.92555965 43.8874219,5.61539762 C43.8874219,4.87072215 43.4097413,4.68491153 42.8354457,4.68491153 C42.0726608,4.68491153 41.3080777,5.02580316 40.798846,5.2746652 L38.9214732,17 L33,17 L35.7052217,0.279432475 L40.8302337,0.279432475 L40.8951341,1.61402084 C42.1042119,0.838615765 43.696317,5.10495676e-08 45.9552457,5.10495676e-08 C48.9480238,-0.000318390459 50,1.48919177 50,3.72369583 Z" id="Shape"></path>
                            <path d="M67.4644303,1.83035037 C69.1483686,0.652786753 70.7384464,0 72.9308635,0 C75.9499055,0 77,1.48946831 77,3.7239096 C77,4.34421623 76.9038542,5.24394744 76.8078717,5.83193317 L74.9980788,16.9996816 L69.1168641,16.9996816 L70.8011288,6.54601819 C70.8321436,6.26659361 70.8972746,5.92571156 70.8972746,5.70949585 C70.8972746,4.87106291 70.420137,4.68509829 69.8468536,4.68509829 C69.1165376,4.68509829 68.3865481,4.99525161 67.844606,5.2748354 L65.9703351,16.9998408 L60.0905895,16.9998408 L61.7748542,6.5461774 C61.8058689,6.26675283 61.8690411,5.92587077 61.8690411,5.70965506 C61.8690411,4.87122213 61.3917403,4.68525751 60.8204157,4.68525751 C60.0571262,4.68525751 59.2953057,5.02613957 58.7868269,5.27499461 L56.9107604,17 L51,17 L53.7008959,0.279902222 L58.7558121,0.279902222 L58.9146403,1.67575136 C60.0905895,0.839229019 61.6790349,0.000636865125 63.808443,0.000636865125 C65.6521889,0 66.859316,0.775542506 67.4644303,1.83035037 Z" id="Shape"></path>
                            <path d="M88.0380436,6.93079126 C88.0380436,5.5190427 87.6926098,4.55652428 86.6582416,4.55652428 C84.36797,4.55652428 83.8976709,8.69494177 83.8976709,10.8119883 C83.8976709,12.4180519 84.3373579,13.412023 85.3714038,13.412023 C87.5361656,13.412023 88.0380436,9.04767307 88.0380436,6.93079126 Z M78,10.5564145 C78,5.10291198 80.8227617,0 87.3173694,0 C92.2111231,0 94,2.95243671 94,7.02761946 C94,12.4178872 91.2076893,18 84.5564764,18 C79.6311438,18 78,14.6949967 78,10.5564145 Z" id="Shape"></path>
                        </g>
                    </g>
                </g>
            </g>
        </g>
    </g>
</svg>